<svg width="42" height="44" viewBox="0 0 42 44" fill="none" xmlns="http://www.w3.org/2000/svg">
<path d="M17.5862 6.77151V0L11.7241 3.38081L17.5862 6.77151Z" fill="#5DC4E9"/>
<path d="M17.5862 40.6192V33.8477L11.7241 37.2285L17.5862 40.6192Z" fill="#009BC0"/>
<path d="M23.4482 37.2285V44L29.3103 40.6192L23.4482 37.2285Z" fill="#009BC0"/>
<path d="M5.86205 33.8477V27.0762L0 30.457L5.86205 33.8477Z" fill="#5DC4E9"/>
<path d="M5.86205 20.3047V13.543L0 16.9238L5.86205 20.3047Z" fill="#5DC4E9"/>
<path d="M5.86206 13.543V20.3047L11.7241 16.9238L5.86206 13.543Z" fill="#009BC0"/>
<path d="M17.5862 20.3047V13.543L11.7241 16.9238L17.5862 20.3047Z" fill="#5DC4E9"/>
<path d="M17.5862 20.3047V27.0762L23.4482 23.6954L17.5862 20.3047Z" fill="#009BC0"/>
<path d="M17.5862 13.543V20.3047L23.4482 16.9238L17.5862 13.543Z" fill="#009BC0"/>
<path d="M35.1723 23.6953V16.9238L29.3102 20.3046L35.1723 23.6953Z" fill="#009BC0"/>
<path d="M11.7241 10.1523V16.9238L17.5862 13.543L11.7241 10.1523Z" fill="#009BC0"/>
<path d="M23.4482 16.9238V10.1523L17.5862 13.543L23.4482 16.9238Z" fill="#5DC4E9"/>
<path d="M23.4482 10.1523V16.9238L29.3103 13.543L23.4482 10.1523Z" fill="#009BC0"/>
<path d="M11.7241 23.6953V30.457L17.5862 27.0762L11.7241 23.6953Z" fill="#009BC0"/>
<path d="M17.5862 33.8477V27.0762L11.7241 30.457L17.5862 33.8477Z" fill="#5DC4E9"/>
<path d="M23.4482 30.457V23.6953L17.5862 27.0762L23.4482 30.457Z" fill="#5DC4E9"/>
<path d="M23.4482 23.6953V30.457L29.3103 27.0762L23.4482 23.6953Z" fill="#009BC0"/>
<path d="M35.1723 30.457V23.6953L29.3102 27.0762L35.1723 30.457Z" fill="#5DC4E9"/>
<path d="M35.1723 23.6953V30.457L41.0344 27.0762L35.1723 23.6953Z" fill="#009BC0"/>
<path d="M29.3103 20.3047V13.543L23.4482 16.9238L29.3103 20.3047Z" fill="#5DC4E9"/>
</svg>
